<?xml version="1.0" encoding="UTF-8" standalone="no"?>
<svg
   version="1.1"
   width="2500"
   height="2500"
   viewBox="0 0 1875.0023 1875.0038"
   id="svg18"
   xmlns="http://www.w3.org/2000/svg"
   xmlns:svg="http://www.w3.org/2000/svg">
  <defs
     id="defs18" />
  <path
     d="M 0,0 V 1874.9986 H 1874.995 V 0 Z"
     style="display:none;fill:#d29447;fill-rule:evenodd;stroke-width:0.964505"
     id="path1" />
  <g
     id="Layer1000"
     transform="matrix(1.3036444,0,0,1.3036444,1276.9691,652.01516)">
    <path
       d="m -479.1958,679.7917 c 78.9221,14.0266 401.4187,15.5084 477.6534,-1.254 l -76.3018,-12.3998 c 3.2084,-7.5756 17.9073,-46.4081 22.1123,-49.345 l -14.3464,-7.1046 c 1.6081,-7.6036 11.7089,-11.4842 12.9504,-19.3234 1.8015,-11.3798 -8.4989,-3.4189 -1.2275,-22.8796 4.1458,-11.0975 -9.7888,3.1069 -3.6061,-20.2843 3.4845,-13.189 3.2271,-13.3684 1.0934,-26.7914 -4.1083,-25.8321 -10.8744,-89.929 6.3777,-107.4229 l -4.1317,0.1326 c -0.3385,-10.5843 -2.5642,-36.9421 -0.3369,-45.6969 l 77.1596,-16.6266 -22.1512,1.5503 c -39.4782,4.4296 -85.8005,1.6128 -125.795,6.0408 -39.7636,4.4031 -86.3947,3.2677 -126.9476,3.238 -85.1672,-0.0608 -165.1874,-8.2166 -249.3642,-9.8403 21.8175,4.6808 68.7262,3.1819 81.5347,25.7589 8.0731,14.2278 -9.4816,31.6686 -7.3728,41.3421 2.1836,10.0228 3.6871,1.0122 3.3502,17.4393 -0.354,17.3254 3.9321,10.4626 7.9406,18.3189 -1.3507,8.5988 -9.7498,27.8786 -10.0493,34.7133 -2.1228,48.3842 -7.5538,68.7183 5.5339,122.0266 3.5421,14.4259 44.3851,23.2025 20.4714,56.2266 -9.8232,13.5649 -62.8507,9.5174 -80.9997,10.2333 z"
       style="fill:#e9f1f1;fill-rule:evenodd"
       id="path2" />
    <path
       d="m -816.3912,287.0825 c 99.6399,30.9809 203.9855,65.0936 310.3338,64.7021 84.1768,1.6237 164.197,9.7795 249.3642,9.8403 40.5529,0.0297 87.184,1.1651 126.9476,-3.238 39.9945,-4.428 86.3168,-1.6112 125.795,-6.0408 61.3112,9.5237 267.7456,-35.5243 324.4088,-67.2928 28.5976,-9.4924 77.2189,-41.1814 38.6687,-70.7819 C 334.5503,195.4003 283.0654,184.2733 252.6133,179.3617 223.3216,174.6373 0.0594,150.8374 -5.6663,165.7468 l -2.6547,64.1141 c -0.1154,14.7425 238.4961,-6.6382 263.6934,24.4659 -10.4766,38.1555 -301.8957,54.9023 -346.3042,56.8644 l -149.5324,0.2262 -239.5723,-4.1161 c -42.2233,-2.8465 -259.8455,-17.6171 -277.1709,-51.655 13.5649,-21.3776 165.2482,-17.77 195.6457,-22.9826 l -15.758,-70.7959 c -30.1682,-7.2122 -183.968,14.5756 -219.5328,23.7796 -25.1444,6.5056 -67.1587,18.1723 -79.192,43.6894 -12.8318,27.2048 39.1335,53.2818 59.6533,57.7457 z"
       style="fill:#fdfffd;fill-rule:evenodd"
       id="path3" />
    <path
       d="m -479.1958,679.7917 -6.4526,-1.9481 c 18.149,-0.7159 71.1765,3.3316 80.9997,-10.2333 23.9137,-33.0241 -16.9293,-41.8007 -20.4714,-56.2266 -13.0877,-53.3083 -7.6567,-73.6424 -5.5339,-122.0266 0.2995,-6.8347 8.6986,-26.1145 10.0493,-34.7133 -4.0085,-7.8563 -8.2946,-0.9935 -7.9406,-18.3189 0.3369,-16.4271 -1.1666,-7.4165 -3.3502,-17.4393 -2.1088,-9.6735 15.4459,-27.1143 7.3728,-41.3421 -12.8085,-22.577 -59.7172,-21.0781 -81.5347,-25.7589 -106.3483,0.3915 -210.6939,-33.7212 -310.3338,-64.7021 41.9691,82.823 76.3844,166.6988 114.7318,251.0846 14.2575,31.3739 37.6377,99.3982 66.7079,115.5351 22.4554,12.4653 126.2894,23.7546 155.7557,26.0895 z"
       style="fill:#d1e5e4;fill-rule:evenodd"
       id="path4" />
    <path
       d="m -3.9506,352.3461 22.1512,-1.5503 -77.1596,16.6266 c -2.2273,8.7548 -0.0016,35.1126 0.3369,45.6969 l 4.1317,-0.1326 c -17.2521,17.4939 -10.486,81.5908 -6.3777,107.4229 2.1337,13.423 2.3911,13.6024 -1.0934,26.7914 -6.1827,23.3912 7.7519,9.1868 3.6061,20.2843 -7.2714,19.4607 3.029,11.4998 1.2275,22.8796 -1.2415,7.8392 -11.3423,11.7198 -12.9504,19.3234 l 14.3464,7.1046 c -4.205,2.9369 -18.9039,41.7694 -22.1123,49.345 l 76.3018,12.3998 c 25.5358,-1.658 135.8583,-15.3586 153.583,-26.0068 14.1592,-8.5068 49.4808,-98.8788 58.7003,-119.6169 35.5633,-80.0015 78.5899,-167.1698 109.7173,-247.8607 -56.6632,31.7685 -263.0976,76.8165 -324.4088,67.2928 z"
       style="fill:#d1e5e4;fill-rule:evenodd"
       id="path5" />
    <path
       d="m -176.0008,-157.5359 c 5.3,-12.2454 22.393,-24.8043 26.8429,-33.8741 5.8505,-11.9272 5.1876,-42.0283 11.8009,-48.9909 24.2209,22.8874 11.9787,39.695 55.9114,71.2295 11.6793,8.382 77.8054,43.5444 80.0046,46.9555 -12.7991,41.7944 -150.1641,-24.0743 -174.5598,-35.32 z m -93.5913,-31.9899 c -59.045,-5.4201 -126.8213,46.865 -127.3484,46.7886 l -4.9163,-0.2823 9.0963,-74.4519 c 18.149,-82.9509 110.4364,-148.9709 189.4411,-95.268 33.7353,22.931 60.6047,72.4258 44.1839,112.6667 -20.7287,50.8034 -75.695,24.3224 -110.4566,10.5469 z m -307.7276,351.3936 15.758,70.7959 c 7.797,16.3148 19.3327,33.4062 32.1786,46.1024 4.5622,4.5092 15.616,17.7887 19.6042,20.0097 8.7049,4.8445 21.7504,2.9557 29.7424,8.5255 l 239.5723,4.1161 c -83.5545,-12.6728 -106.6525,-1.736 -183.667,-53.3613 -51.6145,-34.5979 -91.715,-86.6599 -83.8477,-152.0109 8.4303,-70.027 41.2718,-102.1167 89.7699,-146.6048 29.053,-26.6495 5.4263,-52.7421 38.9667,-79.9421 57.0235,-46.2459 58.8078,17.2115 67.2116,21.6427 94.2324,-145.0763 267.8673,73.3679 324.9048,-23.1775 -20.1142,-25.3533 -71.4822,-39.6638 -101.8017,-67.416 -38.4207,-35.1656 -22.6612,-70.5558 -53.6717,-115.3635 -54.5981,-78.8878 -168.6624,-72.6396 -230.7488,-6.5119 -74.5502,79.4025 -39.4829,170.4671 -84.2143,253.8515 -43.6863,81.4333 -111.9477,110.271 -119.7573,219.3442 z"
       style="fill:#0a1229;fill-rule:evenodd"
       id="path6" />
    <path
       d="M -125.227,148.4308 -286.955,29.1711 c -31.0447,-36.925 -30.8544,-72.7394 -26.3796,-120.442 -23.7593,1.2088 -55.7648,19.3452 -77.2189,30.8201 -27.278,14.5913 -27.2562,50.7675 -30.3943,78.1516 -7.3042,63.7054 -3.4954,120.1784 40.7213,170.0054 65.627,73.9513 301.6742,109.9731 254.9995,-39.2754 z"
       style="fill:#438c99;fill-rule:evenodd"
       id="path7" />
    <path
       d="m -240.4642,311.4174 149.5324,-0.2262 46.0384,-9.2897 c -4.4109,-45.5081 10.5157,-46.0977 -18.8134,-95.229 -10.2724,-17.2085 -42.3372,-52.8934 -61.5202,-58.2417 46.6747,149.2485 -189.3725,113.2267 -254.9995,39.2754 -44.2167,-49.827 -48.0255,-106.3 -40.7213,-170.0054 3.1381,-27.3841 3.1163,-63.5603 30.3943,-78.1516 21.4541,-11.4749 53.4596,-29.6113 77.2189,-30.8201 l 1.3039,-7.5881 c -8.4038,-4.4312 -10.1881,-67.8886 -67.2116,-21.6427 -33.5404,27.2 -9.9137,53.2926 -38.9667,79.9421 -48.4981,44.4881 -81.3396,76.5778 -89.7699,146.6048 -7.8673,65.351 32.2332,117.413 83.8477,152.0109 77.0145,51.6253 100.1125,40.6885 183.667,53.3613 z"
       style="fill:#1e4956;fill-rule:evenodd"
       id="path8" />
    <path
       d="m -258.7473,-265.8744 -0.0359,-2.3193 c -19.8132,-26.5777 32.8587,-48.7414 62.5762,3.89 18.556,32.8603 -52.6501,44.254 -62.5403,-1.5707 z m -134.0132,48.403 -5.8256,59.2103 c 11.5623,0.8937 15.2323,-12.9754 27.4808,-21.3901 26.6713,-18.3205 82.9291,-37.279 101.5132,-9.8746 34.7616,13.7755 89.7279,40.2565 110.4566,-10.5469 16.4208,-40.2409 -10.4486,-89.7357 -44.1839,-112.6667 -79.0047,-53.7029 -171.2921,12.3171 -189.4411,95.268 z"
       style="fill:#438c99;fill-rule:evenodd"
       id="path9" />
    <path
       d="m -125.227,148.4308 c 19.183,5.3483 51.2478,41.0332 61.5202,58.2417 29.3291,49.1313 14.4025,49.7209 18.8134,95.229 12.5308,0.2854 14.2325,-14.9219 19.0255,-26.7431 3.0836,-7.6005 12.899,-27.7007 12.913,-34.2172 -0.7752,-17.94 -2.4987,-50.1951 -0.0671,-67.0542 4.8508,-33.6401 -11.1926,-23.1291 -15.7329,-47.4468 l 76.3439,-0.1232 -79.78,-2.6219 C -73.3584,97.657 -92.6771,78.4131 -141.4903,58.5719 -182.784,41.7877 -242.4997,27.6815 -286.955,29.1711 Z"
       style="fill:#0a1229;fill-rule:evenodd"
       id="path10" />
    <path
       d="m -12.9549,240.9412 c -0.014,6.5165 -9.8294,26.6167 -12.913,34.2172 -4.793,11.8212 -6.4947,27.0285 -19.0255,26.7431 l -46.0384,9.2897 C -46.5233,309.2291 244.8958,292.4823 255.3724,254.3268 230.1751,223.2227 -8.4364,244.6034 -8.321,229.8609 Z"
       style="fill:#438c99;fill-rule:evenodd"
       id="path11" />
    <path
       d="m -480.0365,307.3013 c -7.992,-5.5698 -21.0375,-3.681 -29.7424,-8.5255 -3.9882,-2.221 -15.042,-15.5005 -19.6042,-20.0097 -12.8459,-12.6962 -24.3816,-29.7876 -32.1786,-46.1024 -30.3975,5.2126 -182.0808,1.605 -195.6457,22.9826 17.3254,34.0379 234.9476,48.8085 277.1709,51.655 z"
       style="fill:#438c99;fill-rule:evenodd"
       id="path12" />
    <path
       d="m -144.7376,-165.7073 c 21.4399,-5.9909 99.5245,44.5598 99.5307,44.5692 -16.9449,12.8521 -63.5073,-17.4455 -82.5422,-25.4407 -10.0088,-4.2035 -21.4509,-7.0952 -16.9885,-19.1285 z m -31.2632,8.1714 c 24.3957,11.2457 161.7607,77.1144 174.5598,35.32 -2.1992,-3.4111 -68.3253,-38.5735 -80.0046,-46.9555 -43.9327,-31.5345 -31.6905,-48.3421 -55.9114,-71.2295 -6.6133,6.9626 -5.9504,37.0637 -11.8009,48.9909 -4.4499,9.0698 -21.5429,21.6287 -26.8429,33.8741 z"
       style="fill:#ce4236;fill-rule:evenodd"
       id="path13" />
    <path
       d="m -32.191,123.6951 79.78,2.6219 -76.3439,0.1232 c 4.5403,24.3177 20.5837,13.8067 15.7329,47.4468 -2.4316,16.8591 -0.7081,49.1142 0.0671,67.0542 l 4.6339,-11.0803 2.6547,-64.1141 c -0.0234,-12.7055 33.0818,-0.3493 52.7312,-11.7821 10.2318,-5.9535 38.0183,-15.9872 35.4245,-30.4225 z"
       style="fill:#142838;fill-rule:evenodd"
       id="path14" />
    <path
       d="m -269.5921,-189.5258 c -18.5841,-27.4044 -74.8419,-8.4459 -101.5132,9.8746 -12.2485,8.4147 -15.9185,22.2838 -27.4808,21.3901 l 5.8256,-59.2103 -9.0963,74.4519 4.9163,0.2823 c 0.5271,0.0764 68.3034,-52.2087 127.3484,-46.7886 z"
       style="fill:#1e4956;fill-rule:evenodd"
       id="path15" />
    <path
       d="m -258.7832,-268.1937 c -0.4211,-25.2161 40.7275,-22.2495 46.0821,-7.4446 4.0818,11.2847 -8.2369,17.4892 -17.458,18.9663 -16.1026,2.5813 -17.7123,-3.4704 -28.5882,-9.2024 9.8902,45.8247 81.0963,34.431 62.5403,1.5707 -29.7175,-52.6314 -82.3894,-30.4677 -62.5762,-3.89 z"
       style="fill:#326a79;fill-rule:evenodd"
       id="path16" />
    <path
       d="m -144.7376,-165.7073 c -4.4624,12.0333 6.9797,14.925 16.9885,19.1285 19.0349,7.9952 65.5973,38.2928 82.5422,25.4407 -0.0062,-0.009 -78.0908,-50.5601 -99.5307,-44.5692 z"
       style="fill:#e8cbb4;fill-rule:evenodd"
       id="path17" />
    <path
       d="m -258.7832,-268.1937 0.0359,2.3193 c 10.8759,5.732 12.4856,11.7837 28.5882,9.2024 9.2211,-1.4771 21.5398,-7.6816 17.458,-18.9663 -5.3546,-14.8049 -46.5032,-17.7715 -46.0821,7.4446 z"
       style="fill:#0a1229;fill-rule:evenodd"
       id="path18" />
  </g>
</svg>
